<svg width="10" height="10" viewBox="0 0 10 10" fill="none" xmlns="http://www.w3.org/2000/svg">
<path d="M9.26864 4.65737C9.36751 4.75204 9.42431 4.88456 9.42431 5.02341C9.42431 5.16225 9.36751 5.29267 9.26864 5.38944L5.56623 8.92356C5.36428 9.11709 5.04453 9.10868 4.8531 8.90673C4.66167 8.70478 4.66798 8.38502 4.86993 8.19359L7.65936 5.52828H0.504874C0.22509 5.52828 0 5.30319 0 5.02341C0 4.74362 0.22509 4.51853 0.504874 4.51853H7.65936L4.86783 1.85532C4.66588 1.66179 4.65956 1.34414 4.851 1.14219C5.04243 0.940238 5.36218 0.933928 5.56413 1.12536L9.26654 4.65948L9.26864 4.65737Z" fill="#E4E4E4"/>
</svg>
