<svg width="26" height="26" viewBox="0 0 26 26" fill="none" xmlns="http://www.w3.org/2000/svg">
<path d="M0.787345 12.7626C0.748286 13.4279 1.23652 14.0025 1.88588 14.0479C2.53524 14.0933 3.08695 13.5842 3.13089 12.9138L3.1553 12.5106C3.3213 9.7485 5.53791 7.59628 8.21833 7.59628H18.6618L15.9764 10.3685C15.5175 10.8422 15.5175 11.6084 15.9764 12.0771C16.4354 12.5459 17.1775 12.5509 17.6316 12.0771L22.3187 7.23842C22.7776 6.76462 22.7776 5.9985 22.3187 5.52975L17.6316 0.691036C17.1726 0.217246 16.4305 0.217246 15.9764 0.691036C15.5224 1.16483 15.5175 1.93096 15.9764 2.39971L18.6618 5.17188H8.21833C4.30266 5.17692 1.06076 8.32208 0.811757 12.3594L0.787345 12.7626ZM25.7803 12.9138C25.8193 12.2485 25.3311 11.6739 24.6817 11.6285C24.0324 11.5832 23.4807 12.0922 23.4416 12.7626L23.4172 13.1658C23.2512 15.9279 21.0297 18.0801 18.3493 18.0801H7.91074L10.5961 15.308C11.055 14.8342 11.055 14.0681 10.5961 13.5993C10.1371 13.1306 9.39499 13.1255 8.94093 13.5993L4.25384 18.433C3.79489 18.9068 3.79489 19.6729 4.25384 20.1416L8.94093 24.9803C9.39987 25.4541 10.142 25.4541 10.5961 24.9803C11.0501 24.5066 11.055 23.7404 10.5961 23.2717L7.91074 20.4995H18.3542C22.2747 20.4995 25.5166 17.3543 25.7607 13.317L25.7852 12.9138H25.7803Z" fill="white"/>
</svg>
