<svg width="327" height="51" viewBox="0 0 327 51" fill="none" xmlns="http://www.w3.org/2000/svg">
<path d="M61.8366 19.4526H73.2208C71.672 12.6969 66.6768 7.30792 60.0941 5.31635L51.1493 14.4151C51.8463 14.2589 52.5046 14.1808 53.2016 14.1808C56.8414 14.2199 60.1328 16.2505 61.8366 19.4526Z" fill="white"/>
<path d="M61.914 33.1204C60.249 36.4006 56.8802 38.5093 53.2016 38.5093C47.3159 38.5093 42.5531 33.0423 42.5531 26.4818C42.5531 25.154 42.7467 23.8263 43.1339 22.5377L32.7177 33.0813C32.7564 33.1594 32.7564 33.2375 32.7951 33.3156C35.5057 42.3363 43.8696 48.4282 53.2016 48.272C63.2693 48.272 70.8588 42.6487 73.2983 33.1204H61.914Z" fill="white"/>
<path d="M38.7614 9.87977C34.8118 6.16997 29.5843 4.17839 24.1632 4.33459C11.656 4.33459 2.71128 14.2534 2.71128 26.3981C2.71128 36.5903 9.02295 45.1034 18.4711 47.5635L28.3065 37.6056C27.0287 38.1914 25.6347 38.5038 24.202 38.5038C18.3162 38.5038 13.5534 33.0367 13.5534 26.4762C13.5534 19.7205 18.3162 14.1753 24.202 14.1753C27.8031 14.2144 31.0945 16.245 32.7982 19.4471V19.4862H44.1825C43.2919 15.8154 41.3945 12.4962 38.7614 9.87977Z" fill="white"/>
<path d="M107.333 31.0568H113.451C112.677 33.6732 110.973 35.8991 108.65 37.344C106.675 38.5545 104.429 39.2184 102.144 39.2574C95.484 39.1793 90.1017 33.7122 90.1017 26.9565C90.1017 20.2398 95.5228 14.8508 102.144 14.8508C105.707 14.8508 109.075 16.452 111.36 19.2246C112.367 20.357 113.064 21.7238 113.451 23.2077H107.333C105.978 20.8256 104.468 19.8884 102.067 19.8884C98.272 19.8884 95.4841 22.8953 95.4841 27.0737C95.2905 30.8225 98.1559 34.0247 101.873 34.2199C101.989 34.2199 102.144 34.2199 102.299 34.2199C104.429 34.1809 106.365 32.9703 107.333 31.0568Z" fill="white"/>
<path d="M115.271 38.4764V8.01697H120.692V38.4764H115.271Z" fill="white"/>
<path d="M146.016 29.4947H128.436C129.172 32.2673 131.612 34.1809 134.477 34.259C136.607 34.3371 138.543 33.1655 139.55 31.2911H145.513C143.964 36.0162 139.588 39.2184 134.632 39.2965C128.049 39.2965 122.706 33.9465 122.667 27.2689C122.667 27.2298 122.667 27.1908 122.667 27.1517C122.551 20.435 127.894 14.8899 134.554 14.7727C141.06 14.8508 146.287 20.2007 146.287 26.7612C146.326 27.6594 146.248 28.5966 146.016 29.4947ZM141.021 25.1211C140.479 22.0361 137.807 19.7712 134.671 19.7712C131.534 19.7712 128.824 21.9971 128.243 25.1211H141.021Z" fill="white"/>
<path d="M154.341 38.4764L144.738 14.8508H150.624L156.587 30.7835L162.202 14.8508H168.165L158.562 38.4764H154.341Z" fill="white"/>
<path d="M189.888 29.4947H172.308C173.044 32.2673 175.484 34.1809 178.349 34.259C180.479 34.3371 182.415 33.1655 183.421 31.2911H189.385C187.836 36.0162 183.46 39.2184 178.504 39.2965C171.921 39.2965 166.578 33.9465 166.539 27.2689C166.539 27.2298 166.539 27.1908 166.539 27.1517C166.423 20.435 171.766 14.8899 178.426 14.7727C184.932 14.8508 190.159 20.2007 190.159 26.7612C190.198 27.6594 190.082 28.5966 189.888 29.4947ZM184.893 25.1211C184.351 22.0361 181.679 19.7712 178.543 19.7712C175.406 19.7712 172.696 21.9971 172.115 25.1211H184.893Z" fill="white"/>
<path d="M220.362 31.0568H226.48C225.706 33.6732 224.002 35.8991 221.679 37.344C219.704 38.5545 217.458 39.2184 215.174 39.2574C208.513 39.1793 203.131 33.7122 203.131 26.9565C203.131 20.2398 208.552 14.8508 215.174 14.8508C218.736 14.8508 222.105 16.452 224.389 19.2246C225.396 20.357 226.093 21.7238 226.48 23.2077H220.362C219.007 20.8256 217.497 19.8884 215.096 19.8884C211.301 19.8884 208.513 22.8953 208.513 27.0737C208.32 30.8225 211.185 34.0247 214.902 34.2199C215.057 34.2199 215.174 34.2199 215.328 34.2199C217.458 34.1809 219.394 32.9703 220.362 31.0568Z" fill="white"/>
<path d="M228.804 38.4764V8.01697H234.225V17.1938C235.812 15.6709 237.903 14.8508 240.072 14.8508C243.363 14.9289 246.383 16.8033 247.894 19.7321C248.629 21.5675 248.978 23.5981 248.862 25.5897V38.4764H243.441V26.8394C243.441 22.0362 242.008 19.8884 238.833 19.8884C235.696 19.8884 234.263 22.1533 234.263 26.8784V38.4764H228.804Z" fill="white"/>
<path d="M274.302 29.4947H256.722C257.458 32.2673 259.897 34.1809 262.763 34.259C264.893 34.3371 266.829 33.1655 267.835 31.2911H273.799C272.25 36.0162 267.874 39.2184 262.918 39.2965C256.335 39.2965 250.991 33.9465 250.953 27.2689C250.953 27.2298 250.953 27.1908 250.953 27.1517C250.836 20.435 256.18 14.8899 262.84 14.7727C269.346 14.8508 274.573 20.2007 274.573 26.7612C274.612 27.6594 274.495 28.5966 274.302 29.4947ZM269.307 25.1211C268.765 22.0361 266.093 19.7712 262.956 19.7712C259.82 19.7712 257.109 21.9971 256.529 25.1211H269.307Z" fill="white"/>
<path d="M305.667 46.1303L309.849 36.3677L301.175 14.8899H307.37L312.869 30.3149L318.716 14.8899H324.912L311.514 46.1303H305.667Z" fill="white"/>
<path d="M192.754 38.4764V15.6709H197.749V17.7406C199.375 15.5928 200.498 14.8899 202.666 14.8899C202.821 14.8899 202.937 14.8899 203.092 14.929V20.2398C199.762 20.396 198.213 22.1143 198.213 25.6679V38.5155L192.754 38.4764Z" fill="white"/>
<path d="M276.703 38.4764V15.6709H281.698V17.7406C283.324 15.5928 284.447 14.8899 286.615 14.8899C286.77 14.8899 286.887 14.8899 287.041 14.929V20.2398C283.711 20.396 282.162 22.1143 282.162 25.6679V38.5155L276.703 38.4764Z" fill="white"/>
<path d="M289.403 38.4764V15.6709H294.399V17.7406C296.025 15.5928 297.148 14.8899 299.316 14.8899C299.471 14.8899 299.587 14.8899 299.742 14.929V20.2398C296.373 20.396 294.863 22.1143 294.863 25.6679V38.5155L289.403 38.4764Z" fill="white"/>
</svg>
