<svg width="26" height="26" viewBox="0 0 26 26" fill="none" xmlns="http://www.w3.org/2000/svg">
<path d="M13.2852 2.67944C7.6748 2.67944 3.12891 7.22534 3.12891 12.8357V14.7888C3.12891 15.4382 2.60645 15.9607 1.95703 15.9607C1.30762 15.9607 0.785156 15.4382 0.785156 14.7888V12.8357C0.785156 5.9314 6.38086 0.335693 13.2852 0.335693C20.1895 0.335693 25.7852 5.9314 25.7852 12.8357V19.8718C25.7852 22.2449 23.8613 24.1687 21.4834 24.1687L16.0977 24.1638C15.6924 24.8621 14.9355 25.3357 14.0664 25.3357H12.5039C11.21 25.3357 10.1602 24.2859 10.1602 22.9919C10.1602 21.698 11.21 20.6482 12.5039 20.6482H14.0664C14.9355 20.6482 15.6924 21.1218 16.0977 21.8201L21.4883 21.825C22.5674 21.825 23.4414 20.9509 23.4414 19.8718V12.8357C23.4414 7.22534 18.8955 2.67944 13.2852 2.67944ZM7.81641 10.4919H8.59766C9.46191 10.4919 10.1602 11.1902 10.1602 12.0544V17.5232C10.1602 18.3875 9.46191 19.0857 8.59766 19.0857H7.81641C6.09277 19.0857 4.69141 17.6843 4.69141 15.9607V13.6169C4.69141 11.8933 6.09277 10.4919 7.81641 10.4919ZM18.7539 10.4919C20.4775 10.4919 21.8789 11.8933 21.8789 13.6169V15.9607C21.8789 17.6843 20.4775 19.0857 18.7539 19.0857H17.9727C17.1084 19.0857 16.4102 18.3875 16.4102 17.5232V12.0544C16.4102 11.1902 17.1084 10.4919 17.9727 10.4919H18.7539Z" fill="white"/>
</svg>
