<svg width="23" height="23" viewBox="0 0 23 23" fill="none" xmlns="http://www.w3.org/2000/svg">
<path d="M11.0119 20.6474C16.333 20.6474 20.6474 16.333 20.6474 11.0119C20.6474 5.69094 16.333 1.37649 11.0119 1.37649C5.69094 1.37649 1.37649 5.69094 1.37649 11.0119C1.37649 11.4593 1.40703 11.8981 1.46553 12.3282L1.05173 12.4831C0.714486 12.6035 0.420734 12.8143 0.193784 13.081C0.0665879 12.4099 1.02557e-08 11.7174 1.02557e-08 11.0119C1.02557e-08 4.92957 4.92957 0 11.0119 0C17.0943 0 22.0239 4.92957 22.0239 11.0119C22.0239 17.0943 17.0943 22.0239 11.0119 22.0239C10.3065 22.0239 9.61394 21.9594 8.9429 21.8303C9.2096 21.6023 9.38166 21.3098 9.54082 20.9743L9.69567 20.5571C10.1258 20.6173 10.5646 20.6474 11.0119 20.6474ZM11.184 16.5136C14.1478 16.4233 16.5179 13.9929 16.5179 11.0119C16.5179 7.97076 14.0531 5.50597 11.0119 5.50597C8.03098 5.50597 5.60061 7.87612 5.51027 10.8012L4.13722 11.3432C4.13206 11.2356 4.09077 11.1238 4.09077 10.9732C4.09077 7.20938 7.20938 4.09077 10.9732 4.09077C14.8145 4.09077 17.8944 7.20938 17.8944 10.9732C17.8944 14.8145 14.8145 17.8944 10.9732 17.8944C10.9001 17.8944 10.7883 17.8901 10.6807 17.8858L11.184 16.5136ZM8.25036 20.4968C8.15142 20.7635 7.90193 20.9399 7.61803 20.9098C7.33413 20.9528 7.07603 20.7807 6.9685 20.5227L5.65653 17.3395L1.17475 21.8217C0.906335 22.0927 0.470589 22.0927 0.20157 21.8217C-0.0671901 21.555 -0.0671901 21.1163 0.20157 20.8496L4.68438 16.3674L1.50339 15.0167C1.24099 14.9479 1.07194 14.6898 1.07711 14.4059C1.0827 14.122 1.26121 13.8725 1.52748 13.7735L10.7754 10.328C11.0248 10.2721 11.3088 10.3366 11.498 10.5259C11.6873 10.7151 11.7518 10.999 11.6572 11.2485L8.25036 20.4968ZM6.53834 15.8598L7.532 18.3633L9.85053 12.1346L3.65932 14.4532L6.16411 15.4855C6.33187 15.5544 6.46952 15.692 6.53834 15.8598Z" fill="white"/>
</svg>
